<svg width="200" height="200" viewBox="0 0 800 800" fill="none" xmlns="http://www.w3.org/2000/svg">
<rect width="800" height="800" fill="black"/>
<path d="M250.281 631.491L247.655 644.275C244.622 655.03 239.963 662.542 231.245 668.433C226.987 671.481 221.713 672.906 215.018 672.912C201.831 672.925 196.549 665.626 194.919 658.324C193.9 653.659 193.895 648.789 194.702 643.717L206.619 587.912C209.652 577.156 214.514 569.442 223.232 563.145C227.084 560.098 232.56 558.672 239.255 558.666C245.748 558.66 250.416 560.481 253.664 563.116C256.913 565.75 258.54 569.603 259.355 573.051C260.373 577.311 260.58 581.774 259.571 587.253L252.907 619.518L219.025 619.55L213.773 643.698C213.168 647.554 213.577 650.799 215 653.233C215.812 654.246 217.233 654.854 219.059 654.852C222.914 654.848 225.143 652.412 226.56 649.367C227.573 647.946 228.18 645.916 228.584 643.684L231.21 631.509L250.281 631.491ZM222.256 603.519L237.066 603.505L240.501 587.88C241.308 583.619 241.305 580.575 239.68 578.142C238.867 577.129 237.446 576.521 235.62 576.523C231.766 576.527 229.537 579.166 227.916 582.211C227.106 583.632 226.296 585.459 225.69 587.894L222.256 603.519ZM309.834 532.832L304.18 560.227L318.179 560.214L314.139 578.68L300.14 578.693L288.628 633.889C287.82 637.338 286.809 641.6 286.813 645.455C287.019 649.309 287.834 652.149 291.08 652.146C292.703 652.144 294.934 651.939 296.354 651.735C296.76 651.532 297.166 651.531 297.572 651.531C297.977 651.53 298.383 651.53 298.789 651.327L294.547 671.416C293.939 671.62 293.533 671.62 293.127 671.823C292.519 672.027 291.91 672.027 291.302 672.231C289.273 672.639 286.636 672.844 283.39 672.847C271.217 672.859 267.154 666.979 265.726 659.068C264.298 651.157 266.318 642.025 267.732 635.532L279.648 578.713L269.301 578.723L273.341 560.256L283.688 560.247L289.343 532.852L309.834 532.832ZM326.197 671.183L305.706 671.203L337.213 522.053L357.704 522.034L347.606 569.518C348.011 569.315 349.025 568.705 350.444 567.284C351.863 566.268 353.485 565.049 355.31 563.627C358.756 560.986 363.014 558.548 366.463 558.544C371.941 558.539 375.19 561.782 376.817 565.838C378.242 570.098 378.45 575.575 377.44 580.243L358.252 671.153L337.761 671.172L356.343 583.306C357.15 579.045 354.918 578.438 352.483 578.44C350.252 578.443 348.63 579.661 347.008 581.083C346.603 581.489 346.197 581.895 345.792 582.302C345.386 582.708 344.981 583.114 344.576 583.723L326.197 671.183ZM386.798 606.811L416.216 606.783L412.176 626.061L382.758 626.089L386.798 606.811ZM422.364 671.092L441.752 578.558L431.405 578.568L435.445 560.102L445.792 560.092L446.398 557.048C447.813 551.366 449.427 542.235 454.086 534.723C458.745 527.212 465.435 521.119 477.608 521.108C480.651 521.105 483.086 521.306 484.507 521.913L486.739 522.519L483.104 540.174C482.901 539.971 482.495 539.971 482.292 539.972C481.886 539.972 481.481 539.972 481.277 539.77C479.857 539.568 478.437 539.367 477.017 539.368C473.568 539.371 471.339 542.417 469.719 546.273C468.91 548.303 468.303 550.332 467.899 552.361C467.697 553.376 467.495 554.39 467.293 554.999C467.091 555.811 467.092 556.623 466.889 557.231L466.283 560.072L476.63 560.062L472.59 578.529L462.243 578.539L442.855 671.072L422.364 671.092ZM520.25 560.021L540.742 560.001L517.313 671.001L496.822 671.02L498.639 661.686C498.233 661.889 497.422 662.499 496.003 663.717C492.962 666.155 489.719 668.796 485.663 671.031C483.23 672.048 481.201 672.658 479.781 672.66C474.303 672.665 471.054 669.422 469.63 665.163C468.003 661.107 467.998 655.629 469.008 650.962L488.195 560.051L508.686 560.032L490.105 647.898C489.094 652.16 491.529 652.766 493.964 652.764C496.196 652.762 497.615 651.543 499.236 650.121C500.047 649.512 500.858 648.497 501.669 647.481L520.25 560.021ZM554.035 670.966L533.544 670.985L556.972 559.986L577.464 559.966L575.444 569.301C575.849 569.098 576.863 568.488 578.282 567.066C579.701 566.051 581.323 564.832 583.148 563.41C586.594 560.769 590.852 558.33 594.301 558.327C599.779 558.322 603.028 561.565 604.655 565.621C606.08 569.88 606.288 575.358 605.278 580.025L586.091 670.935L565.599 670.955L584.181 583.089C584.988 578.827 582.756 578.221 580.321 578.223C578.09 578.225 576.468 579.444 574.846 580.866C574.441 581.272 574.035 581.678 573.63 582.084C573.225 582.49 572.819 582.897 572.414 583.506L554.035 670.966Z" fill="white"/>
<path d="M494.205 127.11L281.456 127.427C240.426 127.488 207.423 160.589 207.484 201.619L207.801 414.368C207.861 455.019 240.963 488.401 281.993 488.34L494.742 488.024C535.392 487.963 568.775 454.861 568.714 413.831L568.398 201.082C568.337 160.052 535.235 127.049 494.205 127.11ZM540.601 413.873C540.639 439.327 520.154 459.873 494.7 459.91L281.951 460.227C256.498 460.265 235.952 439.78 235.914 414.326L235.598 201.578C235.56 176.124 256.044 155.578 281.498 155.54L494.247 155.224C519.701 155.186 540.247 175.67 540.284 201.124L540.601 413.873Z" fill="white"/>
<path d="M446.252 325.874L330 326.047C323.922 326.057 318.607 328.724 314.815 333.288C311.022 337.853 309.511 343.554 310.279 349.251C316.414 387.233 349.508 414.917 388.258 414.86C427.009 414.802 460.02 387.019 466.041 348.64C466.793 342.94 465.265 337.243 461.459 332.69C458.033 328.516 452.331 325.865 446.252 325.874ZM330.03 346.183L446.282 345.63C445.15 351.33 443.259 357.032 440.987 361.974C425.034 364.277 407.18 365.443 388.185 365.471C369.19 365.5 351.332 364.387 335.373 362.131C332.706 357.196 330.798 351.88 330.03 346.183C330.03 346.183 329.65 346.183 330.03 346.183Z" fill="white"/>
<path d="M321.593 293.008L354.604 265.225C357.639 262.561 359.533 258.759 359.527 254.58C359.521 250.401 357.616 246.605 354.572 243.95L321.479 216.266C315.393 211.336 306.656 212.109 301.727 218.195C296.797 224.281 297.57 233.018 303.655 237.948L323.816 255.014L303.706 272.139C297.635 277.087 296.888 285.826 301.836 291.897C304.501 295.313 308.682 296.826 312.481 296.82C315.9 296.435 318.937 295.291 321.593 293.008Z" fill="white"/>
<path d="M474.204 217.558C469.257 211.487 460.518 210.74 454.446 215.688L421.436 243.471C418.4 246.135 416.506 249.937 416.513 254.116C416.519 258.295 418.424 262.091 421.467 264.746L454.561 292.43C457.223 294.705 460.264 295.841 463.683 295.835C467.862 295.829 471.659 294.304 474.314 290.881C479.243 284.795 478.471 276.058 472.385 271.128L452.225 254.442L472.334 237.316C478.406 232.369 479.152 223.63 474.204 217.558Z" fill="white"/>
</svg>
